<svg xmlns="http://www.w3.org/2000/svg" viewBox="0 0 249.597 249.597">
  <defs>
    <style>
      .cls-1 {
        fill: #83d8f4;
      }

      .cls-2 {
        fill: #91dcf5;
      }

      .cls-3 {
        fill: #43a047;
      }

      .cls-4 {
        fill: #2e7d32;
      }

      .cls-5 {
        fill: #ff5023;
      }

      .cls-6 {
        fill: #f1f2f2;
      }

      .cls-7 {
        fill: #ffcd00;
      }
    </style>
  </defs>
  <g id="geofauna_logo" transform="translate(0.001 0.001)">
    <path id="Path_51" data-name="Path 51" class="cls-1" d="M225.4,50.145A176.285,176.285,0,0,1,50.145,225.4,124.763,124.763,0,1,0,225.4,50.145Zm0,0" transform="translate(-23.173 -23.173)"/>
    <path id="Path_52" data-name="Path 52" class="cls-2" d="M202.223,26.971A124.75,124.75,0,0,0,26.972,202.222,176.285,176.285,0,0,0,202.223,26.971Zm0,0" transform="translate(0 0)"/>
    <path id="Path_53" data-name="Path 53" class="cls-3" d="M318.318,79.69c-9.51,4.3-14.758-.773-21.515,4.3-8.348,6.282-11.7,22.549-4.3,34.425,5.238,8.367,14.63,10.466,25.234,12.781a175.669,175.669,0,0,0,17.643-70.511,35.444,35.444,0,0,1-17.059,19Zm0,0" transform="translate(-133.278 -28.045)"/>
    <path id="Path_54" data-name="Path 54" class="cls-4" d="M362.041,52.129a33.37,33.37,0,0,1-1.5,4.6A175.667,175.667,0,0,1,342.9,127.243l.6.128c14.76,3.227,20.484-3.614,34.425,0a52.514,52.514,0,0,1,17.212,8.606,40.014,40.014,0,0,1,12.716,18.887c.095-1.983.193-3.967.193-5.978a124.527,124.527,0,0,0-46-96.758Zm0,0" transform="translate(-158.459 -24.09)"/>
    <path id="Path_55" data-name="Path 55" class="cls-4" d="M210.6,317.07c8.52,9.423,10.758,25.346,4.3,34.424-5.249,7.4-12.434,4.862-17.212,12.909a22.7,22.7,0,0,0,0,21.515,19.246,19.246,0,0,0,2.364,3.4,126.166,126.166,0,0,0,14.849.908,124.745,124.745,0,0,0,109.337-64.628c-7.827-5.236-20.053-12.163-31.882-12.827a52.842,52.842,0,0,0-34.425,8.606c-12.693,9.3-15.189,22.463-21.515,21.515-4.475-.645-6.927-7.875-8.606-12.909-3.843-11.464-1.759-19.221-1.794-25.65a175.839,175.839,0,0,1-16.445,11.678c.443.435.809.819,1.027,1.063Zm0,0" transform="translate(-90.103 -140.636)"/>
    <path id="Path_56" data-name="Path 56" class="cls-3" d="M142.584,155.038c-4.431-6.2-12.693-7.358-21.515-8.606-18.5-2.582-25.774,5.379-34.425,0a20.436,20.436,0,0,1-8.606-21.515c3.616-10.8,19.408-7.142,38.728-21.515,6.24-4.6,21.085-15.662,21.515-30.121.431-14.157-13.382-18.2-17.212-34.425-1.664-6.988,1.441-23.06,9.312-38.6a124.755,124.755,0,0,0-108.5,69.8v.04a126.786,126.786,0,0,0,.214,46.214c2.626,17.343,5.034,33.09,17.212,47.334,5.337,6.282,13.554,15.836,25.818,17.212,13.6,1.507,31.542-7.186,34.425-8.606a26.537,26.537,0,0,1,12.909-4.3,24.53,24.53,0,0,1,16.185,7.543,175.836,175.836,0,0,0,16.445-11.678,14.288,14.288,0,0,0-2.509-8.774Zm0,0" transform="translate(-9.181 -0.12)"/>
    <path id="Path_57" data-name="Path 57" class="cls-5" d="M108.865,34.44c0,19.019-34.425,64.546-34.425,64.546s-21.471-28.4-30.508-49.7A41.187,41.187,0,0,1,40.016,34.44a34.425,34.425,0,0,1,68.849,0Zm0,0" transform="translate(-18.492 -0.008)"/>
    <path id="Path_58" data-name="Path 58" class="cls-6" d="M105.834,44.925A12.909,12.909,0,1,1,92.925,32.016,12.91,12.91,0,0,1,105.834,44.925Zm0,0" transform="translate(-36.977 -14.795)"/>
    <path id="Path_59" data-name="Path 59" class="cls-7" d="M348.865,250.44a58.255,58.255,0,0,1-7.7,22.85,344.752,344.752,0,0,1-26.722,41.7s-11.275-14.93-20.956-31.283a164.494,164.494,0,0,1-9.552-18.416,41.186,41.186,0,0,1-3.916-14.846,34.425,34.425,0,0,1,68.849,0Zm0,0" transform="translate(-129.401 -99.825)"/>
    <path id="Path_60" data-name="Path 60" class="cls-6" d="M345.834,260.925a12.909,12.909,0,1,1-12.909-12.909A12.91,12.91,0,0,1,345.834,260.925Zm0,0" transform="translate(-147.885 -114.613)"/>
  </g>
</svg>
